<mxfile host="Electron" modified="2024-05-15T09:03:30.133Z" agent="Mozilla/5.0 (Windows NT 10.0; Win64; x64) AppleWebKit/537.36 (KHTML, like Gecko) draw.io/24.4.0 Chrome/120.0.6099.109 Electron/28.1.0 Safari/537.36" etag="M78YxR6DH5OmXM9FkGaJ" version="24.4.0" type="device">
  <diagram name="Страница — 1" id="Qr52Pwc_JzIJ7BBqwCqL">
    <mxGraphModel dx="1434" dy="854" grid="1" gridSize="10" guides="1" tooltips="1" connect="1" arrows="1" fold="1" page="1" pageScale="1" pageWidth="827" pageHeight="1169" math="0" shadow="0">
      <root>
        <mxCell id="0" />
        <mxCell id="1" parent="0" />
        <mxCell id="NLoz4sdCtZWqXGR3e3TK-3" style="edgeStyle=orthogonalEdgeStyle;rounded=0;orthogonalLoop=1;jettySize=auto;html=1;exitX=0.5;exitY=1;exitDx=0;exitDy=0;exitPerimeter=0;entryX=0.5;entryY=0;entryDx=0;entryDy=0;" edge="1" parent="1" source="NLoz4sdCtZWqXGR3e3TK-1" target="NLoz4sdCtZWqXGR3e3TK-2">
          <mxGeometry relative="1" as="geometry" />
        </mxCell>
        <mxCell id="NLoz4sdCtZWqXGR3e3TK-1" value="Начало работы" style="strokeWidth=2;html=1;shape=mxgraph.flowchart.terminator;whiteSpace=wrap;" vertex="1" parent="1">
          <mxGeometry x="364" y="10" width="100" height="60" as="geometry" />
        </mxCell>
        <mxCell id="NLoz4sdCtZWqXGR3e3TK-5" style="edgeStyle=orthogonalEdgeStyle;rounded=0;orthogonalLoop=1;jettySize=auto;html=1;exitX=0;exitY=0.5;exitDx=0;exitDy=0;entryX=0.5;entryY=0;entryDx=0;entryDy=0;" edge="1" parent="1" source="NLoz4sdCtZWqXGR3e3TK-2" target="NLoz4sdCtZWqXGR3e3TK-4">
          <mxGeometry relative="1" as="geometry" />
        </mxCell>
        <mxCell id="NLoz4sdCtZWqXGR3e3TK-6" value="Нет" style="edgeLabel;html=1;align=center;verticalAlign=middle;resizable=0;points=[];" vertex="1" connectable="0" parent="NLoz4sdCtZWqXGR3e3TK-5">
          <mxGeometry x="-0.8505" y="-1" relative="1" as="geometry">
            <mxPoint as="offset" />
          </mxGeometry>
        </mxCell>
        <mxCell id="NLoz4sdCtZWqXGR3e3TK-12" style="edgeStyle=orthogonalEdgeStyle;rounded=0;orthogonalLoop=1;jettySize=auto;html=1;exitX=1;exitY=0.5;exitDx=0;exitDy=0;entryX=0.5;entryY=0;entryDx=0;entryDy=0;" edge="1" parent="1" source="NLoz4sdCtZWqXGR3e3TK-2" target="NLoz4sdCtZWqXGR3e3TK-11">
          <mxGeometry relative="1" as="geometry" />
        </mxCell>
        <mxCell id="NLoz4sdCtZWqXGR3e3TK-15" value="Да" style="edgeLabel;html=1;align=center;verticalAlign=middle;resizable=0;points=[];" vertex="1" connectable="0" parent="NLoz4sdCtZWqXGR3e3TK-12">
          <mxGeometry x="-0.8566" y="1" relative="1" as="geometry">
            <mxPoint as="offset" />
          </mxGeometry>
        </mxCell>
        <mxCell id="NLoz4sdCtZWqXGR3e3TK-2" value="action == 1" style="rhombus;whiteSpace=wrap;html=1;" vertex="1" parent="1">
          <mxGeometry x="359" y="100" width="110" height="80" as="geometry" />
        </mxCell>
        <mxCell id="NLoz4sdCtZWqXGR3e3TK-8" style="edgeStyle=orthogonalEdgeStyle;rounded=0;orthogonalLoop=1;jettySize=auto;html=1;exitX=0;exitY=0.5;exitDx=0;exitDy=0;" edge="1" parent="1" source="NLoz4sdCtZWqXGR3e3TK-4" target="NLoz4sdCtZWqXGR3e3TK-7">
          <mxGeometry relative="1" as="geometry" />
        </mxCell>
        <mxCell id="NLoz4sdCtZWqXGR3e3TK-9" value="нет" style="edgeLabel;html=1;align=center;verticalAlign=middle;resizable=0;points=[];" vertex="1" connectable="0" parent="NLoz4sdCtZWqXGR3e3TK-8">
          <mxGeometry x="-0.8" relative="1" as="geometry">
            <mxPoint as="offset" />
          </mxGeometry>
        </mxCell>
        <mxCell id="NLoz4sdCtZWqXGR3e3TK-13" style="edgeStyle=orthogonalEdgeStyle;rounded=0;orthogonalLoop=1;jettySize=auto;html=1;exitX=1;exitY=0.5;exitDx=0;exitDy=0;" edge="1" parent="1" source="NLoz4sdCtZWqXGR3e3TK-4" target="NLoz4sdCtZWqXGR3e3TK-10">
          <mxGeometry relative="1" as="geometry" />
        </mxCell>
        <mxCell id="NLoz4sdCtZWqXGR3e3TK-14" value="Да" style="edgeLabel;html=1;align=center;verticalAlign=middle;resizable=0;points=[];" vertex="1" connectable="0" parent="NLoz4sdCtZWqXGR3e3TK-13">
          <mxGeometry x="-0.6809" y="1" relative="1" as="geometry">
            <mxPoint as="offset" />
          </mxGeometry>
        </mxCell>
        <mxCell id="NLoz4sdCtZWqXGR3e3TK-4" value="action == 2" style="rhombus;whiteSpace=wrap;html=1;" vertex="1" parent="1">
          <mxGeometry x="150" y="200" width="110" height="80" as="geometry" />
        </mxCell>
        <mxCell id="NLoz4sdCtZWqXGR3e3TK-7" value="Ошибка Неккоректный ввод" style="strokeWidth=2;html=1;shape=mxgraph.flowchart.terminator;whiteSpace=wrap;" vertex="1" parent="1">
          <mxGeometry x="50" y="310" width="100" height="60" as="geometry" />
        </mxCell>
        <mxCell id="NLoz4sdCtZWqXGR3e3TK-24" style="edgeStyle=orthogonalEdgeStyle;rounded=0;orthogonalLoop=1;jettySize=auto;html=1;exitX=0.5;exitY=1;exitDx=0;exitDy=0;entryX=0.5;entryY=0;entryDx=0;entryDy=0;" edge="1" parent="1" source="NLoz4sdCtZWqXGR3e3TK-10" target="NLoz4sdCtZWqXGR3e3TK-16">
          <mxGeometry relative="1" as="geometry" />
        </mxCell>
        <mxCell id="NLoz4sdCtZWqXGR3e3TK-10" value="Ввод текста" style="shape=process;whiteSpace=wrap;html=1;backgroundOutline=1;" vertex="1" parent="1">
          <mxGeometry x="354" y="210" width="120" height="60" as="geometry" />
        </mxCell>
        <mxCell id="NLoz4sdCtZWqXGR3e3TK-29" style="edgeStyle=orthogonalEdgeStyle;rounded=0;orthogonalLoop=1;jettySize=auto;html=1;exitX=1;exitY=0.5;exitDx=0;exitDy=0;entryX=0.5;entryY=0;entryDx=0;entryDy=0;" edge="1" parent="1" source="NLoz4sdCtZWqXGR3e3TK-11" target="NLoz4sdCtZWqXGR3e3TK-25">
          <mxGeometry relative="1" as="geometry" />
        </mxCell>
        <mxCell id="NLoz4sdCtZWqXGR3e3TK-11" value="Ввод и обработка" style="shape=process;whiteSpace=wrap;html=1;backgroundOutline=1;" vertex="1" parent="1">
          <mxGeometry x="590" y="210" width="120" height="60" as="geometry" />
        </mxCell>
        <mxCell id="NLoz4sdCtZWqXGR3e3TK-43" style="edgeStyle=orthogonalEdgeStyle;rounded=0;orthogonalLoop=1;jettySize=auto;html=1;exitX=0.5;exitY=1;exitDx=0;exitDy=0;entryX=0.5;entryY=0;entryDx=0;entryDy=0;" edge="1" parent="1" source="NLoz4sdCtZWqXGR3e3TK-16" target="NLoz4sdCtZWqXGR3e3TK-39">
          <mxGeometry relative="1" as="geometry">
            <Array as="points">
              <mxPoint x="414" y="470" />
              <mxPoint x="580" y="470" />
            </Array>
          </mxGeometry>
        </mxCell>
        <mxCell id="NLoz4sdCtZWqXGR3e3TK-16" value="Проверка сдвига" style="rhombus;whiteSpace=wrap;html=1;" vertex="1" parent="1">
          <mxGeometry x="354" y="320" width="120" height="80" as="geometry" />
        </mxCell>
        <mxCell id="NLoz4sdCtZWqXGR3e3TK-21" value="Вернуть положительный результат" style="strokeWidth=2;html=1;shape=mxgraph.flowchart.terminator;whiteSpace=wrap;" vertex="1" parent="1">
          <mxGeometry x="240" y="410" width="100" height="60" as="geometry" />
        </mxCell>
        <mxCell id="NLoz4sdCtZWqXGR3e3TK-22" style="edgeStyle=orthogonalEdgeStyle;rounded=0;orthogonalLoop=1;jettySize=auto;html=1;exitX=0;exitY=0.5;exitDx=0;exitDy=0;entryX=0.5;entryY=0;entryDx=0;entryDy=0;entryPerimeter=0;" edge="1" parent="1" source="NLoz4sdCtZWqXGR3e3TK-16" target="NLoz4sdCtZWqXGR3e3TK-21">
          <mxGeometry relative="1" as="geometry" />
        </mxCell>
        <mxCell id="NLoz4sdCtZWqXGR3e3TK-23" value="Да" style="edgeLabel;html=1;align=center;verticalAlign=middle;resizable=0;points=[];" vertex="1" connectable="0" parent="NLoz4sdCtZWqXGR3e3TK-22">
          <mxGeometry x="0.4561" relative="1" as="geometry">
            <mxPoint as="offset" />
          </mxGeometry>
        </mxCell>
        <mxCell id="NLoz4sdCtZWqXGR3e3TK-40" style="edgeStyle=orthogonalEdgeStyle;rounded=0;orthogonalLoop=1;jettySize=auto;html=1;exitX=0.5;exitY=1;exitDx=0;exitDy=0;" edge="1" parent="1" source="NLoz4sdCtZWqXGR3e3TK-25" target="NLoz4sdCtZWqXGR3e3TK-39">
          <mxGeometry relative="1" as="geometry" />
        </mxCell>
        <mxCell id="NLoz4sdCtZWqXGR3e3TK-25" value="Проверка сдвига" style="rhombus;whiteSpace=wrap;html=1;" vertex="1" parent="1">
          <mxGeometry x="834" y="310" width="120" height="80" as="geometry" />
        </mxCell>
        <mxCell id="NLoz4sdCtZWqXGR3e3TK-26" value="Вернуть положительный результат" style="strokeWidth=2;html=1;shape=mxgraph.flowchart.terminator;whiteSpace=wrap;" vertex="1" parent="1">
          <mxGeometry x="720" y="400" width="100" height="60" as="geometry" />
        </mxCell>
        <mxCell id="NLoz4sdCtZWqXGR3e3TK-27" style="edgeStyle=orthogonalEdgeStyle;rounded=0;orthogonalLoop=1;jettySize=auto;html=1;exitX=0;exitY=0.5;exitDx=0;exitDy=0;entryX=0.5;entryY=0;entryDx=0;entryDy=0;entryPerimeter=0;" edge="1" parent="1" source="NLoz4sdCtZWqXGR3e3TK-25" target="NLoz4sdCtZWqXGR3e3TK-26">
          <mxGeometry relative="1" as="geometry" />
        </mxCell>
        <mxCell id="NLoz4sdCtZWqXGR3e3TK-28" value="Да" style="edgeLabel;html=1;align=center;verticalAlign=middle;resizable=0;points=[];" vertex="1" connectable="0" parent="NLoz4sdCtZWqXGR3e3TK-27">
          <mxGeometry x="0.4561" relative="1" as="geometry">
            <mxPoint as="offset" />
          </mxGeometry>
        </mxCell>
        <mxCell id="NLoz4sdCtZWqXGR3e3TK-30" value="Вернуть отрицательный результат" style="strokeWidth=2;html=1;shape=mxgraph.flowchart.terminator;whiteSpace=wrap;" vertex="1" parent="1">
          <mxGeometry x="150" y="480" width="100" height="60" as="geometry" />
        </mxCell>
        <mxCell id="NLoz4sdCtZWqXGR3e3TK-33" style="edgeStyle=orthogonalEdgeStyle;rounded=0;orthogonalLoop=1;jettySize=auto;html=1;exitX=0;exitY=0;exitDx=0;exitDy=0;entryX=0.5;entryY=0;entryDx=0;entryDy=0;entryPerimeter=0;" edge="1" parent="1" source="NLoz4sdCtZWqXGR3e3TK-16" target="NLoz4sdCtZWqXGR3e3TK-30">
          <mxGeometry relative="1" as="geometry" />
        </mxCell>
        <mxCell id="NLoz4sdCtZWqXGR3e3TK-34" value="Нет" style="edgeLabel;html=1;align=center;verticalAlign=middle;resizable=0;points=[];" vertex="1" connectable="0" parent="NLoz4sdCtZWqXGR3e3TK-33">
          <mxGeometry x="-0.6049" y="3" relative="1" as="geometry">
            <mxPoint as="offset" />
          </mxGeometry>
        </mxCell>
        <mxCell id="NLoz4sdCtZWqXGR3e3TK-36" value="Вернуть отрицательный результат" style="strokeWidth=2;html=1;shape=mxgraph.flowchart.terminator;whiteSpace=wrap;" vertex="1" parent="1">
          <mxGeometry x="1000" y="400" width="100" height="60" as="geometry" />
        </mxCell>
        <mxCell id="NLoz4sdCtZWqXGR3e3TK-37" style="edgeStyle=orthogonalEdgeStyle;rounded=0;orthogonalLoop=1;jettySize=auto;html=1;exitX=1;exitY=0.5;exitDx=0;exitDy=0;entryX=0.5;entryY=0;entryDx=0;entryDy=0;entryPerimeter=0;" edge="1" parent="1" source="NLoz4sdCtZWqXGR3e3TK-25" target="NLoz4sdCtZWqXGR3e3TK-36">
          <mxGeometry relative="1" as="geometry" />
        </mxCell>
        <mxCell id="NLoz4sdCtZWqXGR3e3TK-38" value="нет" style="edgeLabel;html=1;align=center;verticalAlign=middle;resizable=0;points=[];" vertex="1" connectable="0" parent="NLoz4sdCtZWqXGR3e3TK-37">
          <mxGeometry x="-0.7123" y="1" relative="1" as="geometry">
            <mxPoint as="offset" />
          </mxGeometry>
        </mxCell>
        <mxCell id="NLoz4sdCtZWqXGR3e3TK-39" value="Вывод результата работы алгоритма" style="shape=parallelogram;perimeter=parallelogramPerimeter;whiteSpace=wrap;html=1;fixedSize=1;" vertex="1" parent="1">
          <mxGeometry x="510" y="550" width="140" height="60" as="geometry" />
        </mxCell>
        <mxCell id="NLoz4sdCtZWqXGR3e3TK-44" value="Конец работы" style="strokeWidth=2;html=1;shape=mxgraph.flowchart.terminator;whiteSpace=wrap;" vertex="1" parent="1">
          <mxGeometry x="530" y="640" width="100" height="30" as="geometry" />
        </mxCell>
        <mxCell id="NLoz4sdCtZWqXGR3e3TK-45" style="edgeStyle=orthogonalEdgeStyle;rounded=0;orthogonalLoop=1;jettySize=auto;html=1;exitX=0.5;exitY=1;exitDx=0;exitDy=0;entryX=0.5;entryY=0;entryDx=0;entryDy=0;entryPerimeter=0;" edge="1" parent="1" source="NLoz4sdCtZWqXGR3e3TK-39" target="NLoz4sdCtZWqXGR3e3TK-44">
          <mxGeometry relative="1" as="geometry" />
        </mxCell>
      </root>
    </mxGraphModel>
  </diagram>
</mxfile>
